<?xml version="1.0" encoding="utf-8"?>
<!-- Generator: Adobe Illustrator 18.0.0, SVG Export Plug-In . SVG Version: 6.00 Build 0)  -->
<!DOCTYPE svg PUBLIC "-//W3C//DTD SVG 1.1//EN" "http://www.w3.org/Graphics/SVG/1.1/DTD/svg11.dtd">
<svg version="1.1" id="Layer_3" xmlns="http://www.w3.org/2000/svg" xmlns:xlink="http://www.w3.org/1999/xlink" x="0px" y="0px"
	 viewBox="0 0 233.6 134.2" enable-background="new 0 0 233.6 134.2" xml:space="preserve">
<g>
	<path fill="#fff" d="M165,95.3l-10.3,9.1H128l11.5-24.5L128,55.3h26.7l10.3,9.1h0.7l-11.4-36.5h5.7c-2.6-1.7-5.8-2.8-9.2-2.8h-20.1
		c-2.8,0-5.7-2.1-6.6-4.8L119,4.8c-0.9-2.6-3.9-4.8-6.6-4.8h-57c-2.8,0-5.7,2.1-6.6,4.8l-5.2,15.6c-0.9,2.6-3.9,4.8-6.6,4.8H16.8
		C7.5,25.2,0,32.7,0,41.9v75.5c0,9.2,7.5,16.8,16.8,16.8H151c3.1,0,6.1-0.9,8.6-2.4h-5.1l11.4-36.5H165z M22.6,53.7
		c-3.2,0-5.9-2.6-5.9-5.9c0-3.2,2.6-5.9,5.9-5.9c3.2,0,5.9,2.6,5.9,5.9C28.5,51,25.9,53.7,22.6,53.7z M83.9,117.4
		c-23.2,0-41.9-18.8-41.9-41.9c0-23.2,18.8-41.9,41.9-41.9c23.2,0,41.9,18.8,41.9,41.9C125.8,98.6,107,117.4,83.9,117.4z"/>
	<path fill="#fff" d="M83.9,50.3c-13.9,0-25.2,11.3-25.2,25.2c0,13.9,11.3,25.2,25.2,25.2c13.9,0,25.2-11.3,25.2-25.2
		C109,61.6,97.8,50.3,83.9,50.3z"/>
	<path fill="#fff" d="M219.9,73.5h-23.6l-20.5-36.5h-9.1L178,73.5h-16.4l-10.3-9.1h-9.1l7.3,15.5l-7.3,15.5h9.1l10.3-9.1H178l-11.4,36.5h9.1
		l20.5-36.5h23.6c0,0,13.7,0,13.7-6.4C233.6,73.5,219.9,73.5,219.9,73.5z"/>
</g>
</svg>
