<?xml version="1.0" encoding="utf-8"?>
<!-- Generator: Adobe Illustrator 18.0.0, SVG Export Plug-In . SVG Version: 6.00 Build 0)  -->
<!DOCTYPE svg PUBLIC "-//W3C//DTD SVG 1.1//EN" "http://www.w3.org/Graphics/SVG/1.1/DTD/svg11.dtd">
<svg version="1.1" id="Layer_1" xmlns="http://www.w3.org/2000/svg" xmlns:xlink="http://www.w3.org/1999/xlink" x="0px" y="0px"
	 viewBox="0 0 89 84" enable-background="new 0 0 89 84" xml:space="preserve">
<g>
	<path fill="#fff" d="M4.3,36.9l2.1,0.7c4.8,1.5,9.5,3.1,14.3,4.6l5.8-2.8l-4.4-2.8l-0.6-0.4l-4.3-2.8l0,0
		c-1.1-0.7-1.9-1.6-2.4-2.6c-0.4-0.9-0.6-2-0.6-3c0.1-1.1,0.4-2,0.9-2.9h0c0.6-1,1.5-1.8,2.7-2.3l6.4-3.1l0,0
		c0.9-0.4,2.1-0.7,3.2-0.8h0c1.1-0.1,2.2,0.1,3.2,0.4l19.2,6.7l2.8,0.9l17.7-8.5c1.6-0.8,3.6-1.3,5.7-1.6c0.5-0.1,1-0.1,1.5-0.1
		c-3.3-2.4-7.5-3.8-12.2-3.8c-2.3,0-4.6,0.4-6.6,1.1C55.4,5.7,47.4,0,38,0c-3.6,0-7,0.9-10.1,2.5c-1.9-1.1-4.1-1.7-6.4-1.7
		c-7.2,0-12.9,5.8-12.9,12.9c0,1.4,0.3,2.8,0.7,4.1C3.9,19.4,0,24.3,0,30.2c0,2.8,0.9,5.5,2.5,7.6L4.3,36.9z"/>
	<path fill="#fff" d="M88.7,25.4c-1.7-3.5-11.3-4.2-15.9-2L53,32.9l-6.9,3.7l5.2-4.3l-3.2-1.1l-19.2-6.7
		c-0.6-0.2-1.6-0.1-2.2,0.1l-6.4,3.1c-0.6,0.3-0.6,0.8-0.1,1.1l4.3,2.8l13.3,8.6L21,48.2L4.7,42.9c-2.3,1.1-3.7,1.8-3.7,1.8
		s2,2.4,4.8,5.4l-2.8,1.8c-0.1,0.1-0.2,0.3-0.1,0.4c0.1,0.1,0.2,0.1,0.4,0.1l3.2-1.5c0.5,0.5,1,1.1,1.5,1.6l-5.6,3.6
		c-0.1,0.1-0.2,0.3-0.1,0.4c0.1,0.1,0.3,0.1,0.4,0.1l6.4-3c0.5,0.6,1.1,1.1,1.6,1.6L3,60.3c-0.1,0.1-0.2,0.3-0.1,0.4
		c0.1,0.1,0.2,0.1,0.4,0.1l8.9-4.2c1,0.9,1.9,1.7,2.8,2.5c3,2.5,20.3-2,27.9-5.6l4.3-2.1l-3.3,31.9c-0.1,0.6,0.4,0.9,0.9,0.7
		l6.4-3.1c0.6-0.3,1.2-1,1.5-1.6l12.9-36.6l17-8.2C87.2,32.2,89.9,27.7,88.7,25.4z"/>
</g>
</svg>
