<?xml version="1.0" encoding="utf-8"?>
<!DOCTYPE svg PUBLIC "-//W3C//DTD SVG 1.1//EN" "http://www.w3.org/Graphics/SVG/1.1/DTD/svg11.dtd">
<svg version="1.1" baseProfile="full"
 xmlns="http://www.w3.org/2000/svg"
 xmlns:xlink="http://www.w3.org/1999/xlink"
 xmlns:ev="http://www.w3.org/2001/xml-events" 
  height="30px" 
  width="35px" 
>
<path fill="rgb( 45, 65, 100 )"
 d="M28.426,12.1880000000001 C28.426,12.1880000000001 28.426,8.03400000000011 28.426,8.03400000000011 C28.426,8.03400000000011 6.96700000000001,8.03400000000011 6.96700000000001,8.03400000000011 C6.072,8.03400000000011 5.626,8.38699999999994 5.626,9.25600000000009 C5.626,9.25600000000009 5.626,14.0329999999999 5.626,14.0329999999999 C5.626,14.0329999999999 1.602,17.942 1.602,17.942 C1.602,17.942 1.602,6.73099999999999 1.602,6.73099999999999 C1.602,5.29299999999989 2.803,4.12599999999998 4.285,4.12599999999998 C4.285,4.12599999999998 28.426,4.12599999999998 28.426,4.12599999999998 C28.426,4.12599999999998 28.51,0.05400000000009 28.51,0.05400000000009 C28.51,0.05400000000009 34.713,6.07999999999993 34.713,6.07999999999993 C34.713,6.07999999999993 28.426,12.1880000000001 28.426,12.1880000000001 ZM6.96700000000001,21.0640000000001 C6.96700000000001,21.0640000000001 28.426,21.0640000000001 28.426,21.0640000000001 C29.321,21.0640000000001 29.767,20.712 29.767,19.8430000000001 C29.767,19.8430000000001 29.767,15.0650000000001 29.767,15.0650000000001 C29.767,15.0650000000001 33.791,11.1559999999999 33.791,11.1559999999999 C33.791,11.1559999999999 33.791,22.367 33.791,22.367 C33.791,23.806 32.59,24.973 31.108,24.973 C31.108,24.973 6.96700000000001,24.973 6.96700000000001,24.973 C6.96700000000001,24.973 6.88300000000001,29.0450000000001 6.88300000000001,29.0450000000001 C6.88300000000001,29.0450000000001 0.68000000000001,23.019 0.68000000000001,23.019 C0.68000000000001,23.019 6.96700000000001,16.9110000000001 6.96700000000001,16.9110000000001 C6.96700000000001,16.9110000000001 6.96700000000001,21.0640000000001 6.96700000000001,21.0640000000001 Z "/>
</svg>
