<?xml version="1.0" encoding="utf-8"?>
<!DOCTYPE svg PUBLIC "-//W3C//DTD SVG 1.1//EN" "http://www.w3.org/Graphics/SVG/1.1/DTD/svg11.dtd">
<svg version="1.1" baseProfile="full"
 xmlns="http://www.w3.org/2000/svg"
 xmlns:xlink="http://www.w3.org/1999/xlink"
 xmlns:ev="http://www.w3.org/2001/xml-events" 
  height="100%" 
  width="100%" 
>
<path fill="rgb( 255, 255, 255 )"
 d="M47.0419999999999,1.40599999999995 C46.249,0.41599999999994 45.0730000000001,0.00199999999995 43.8150000000001,0.00199999999995 C43.8150000000001,0.00199999999995 19.1959999999999,0.00199999999995 19.1959999999999,0.00199999999995 C17.9369999999999,0.00199999999995 16.761,0.41599999999994 15.97,1.40699999999993 C15.97,1.40699999999993 1.93200000000002,18.894 1.93200000000002,18.894 C0.59099999999989,20.5709999999999 0.7170000000001,22.9490000000001 2.22299999999996,24.473 C2.22299999999996,24.473 28.5699999999999,51.1410000000001 28.5699999999999,51.1410000000001 C29.1790000000001,51.759 29.933,52.133 30.722,52.2850000000001 C30.74,52.308 30.752,52.3330000000001 30.771,52.3530000000001 C30.7750000000001,52.3589999999999 30.7819999999999,52.3599999999999 30.7819999999999,52.3599999999999 C30.8630000000001,52.4469999999999 30.954,52.509 31.0509999999999,52.5609999999999 C31.0650000000001,52.569 31.0740000000001,52.5809999999999 31.088,52.588 C31.1030000000001,52.595 31.1199999999999,52.7470000000001 31.136,52.7539999999999 C31.252,52.8019999999999 31.374,52.992 31.501,52.992 C31.501,52.992 31.5039999999999,52.992 31.5039999999999,52.992 C31.5039999999999,52.992 31.5050000000001,52.992 31.5050000000001,52.992 C31.5050000000001,52.992 31.5060000000001,52.992 31.5060000000001,52.992 C31.5060000000001,52.992 31.509,52.992 31.51,52.992 C31.6369999999999,52.992 31.759,52.8019999999999 31.875,52.7529999999999 C31.8900000000001,52.7470000000001 31.9069999999999,52.672 31.923,52.665 C31.9369999999999,52.6579999999999 31.9449999999999,52.607 31.9590000000001,52.5989999999999 C32.057,52.547 32.1479999999999,52.4649999999999 32.2249999999999,52.3800000000001 C32.23,52.376 32.2360000000001,52.3630000000001 32.24,52.3579999999999 C32.259,52.337 32.271,52.3030000000001 32.289,52.2809999999999 C33.078,52.1279999999999 33.8309999999999,51.742 34.441,51.124 C34.441,51.124 60.788,24.4349999999999 60.788,24.4349999999999 C62.2950000000001,22.9100000000001 62.4200000000001,20.5719999999999 61.079,18.894 C61.079,18.894 47.0419999999999,1.40599999999995 47.0419999999999,1.40599999999995 ZM45.5070000000001,2.66499999999996 C45.5070000000001,2.66499999999996 59.5450000000001,20.308 59.5450000000001,20.308 C59.6959999999999,20.4949999999999 59.8040000000001,19.998 59.885,20.998 C59.885,20.998 46.03,20.998 46.03,20.998 C46.0050000000001,20.998 45.989,20.713 45.95,20.5730000000001 C45.95,20.5730000000001 40.711,2.00299999999993 40.711,2.00299999999993 C40.711,2.00299999999993 43.8150000000001,2.00299999999993 43.8150000000001,2.00299999999993 C44.4749999999999,2.00299999999993 45.0920000000001,2.14499999999998 45.5070000000001,2.66499999999996 ZM19.2370000000001,22.998 C19.2370000000001,22.998 30.6489999999999,22.998 30.6489999999999,22.998 C30.6489999999999,22.998 30.635,47.74 30.635,47.74 C30.635,47.74 19.2370000000001,22.998 19.2370000000001,22.998 ZM32.6099999999999,47.23 C32.6099999999999,47.23 32.624,22.998 32.624,22.998 C32.624,22.998 43.7750000000001,22.998 43.7750000000001,22.998 C43.7750000000001,22.998 32.6099999999999,47.23 32.6099999999999,47.23 ZM38.6569999999999,2.00299999999993 C38.6569999999999,2.00299999999993 44.0160000000001,20.998 44.0160000000001,20.998 C44.0160000000001,20.998 32.624,20.998 32.624,20.998 C32.624,20.998 32.635,2.00299999999993 32.635,2.00299999999993 C32.635,2.00299999999993 38.6569999999999,2.00299999999993 38.6569999999999,2.00299999999993 ZM30.6500000000001,20.998 C30.6500000000001,20.998 18.9960000000001,20.998 18.9960000000001,20.998 C18.9960000000001,20.998 24.354,2.00299999999993 24.354,2.00299999999993 C24.354,2.00299999999993 30.6610000000001,2.00299999999993 30.6610000000001,2.00299999999993 C30.6610000000001,2.00299999999993 30.6500000000001,20.998 30.6500000000001,20.998 ZM17.5039999999999,2.66499999999996 C17.9190000000001,2.14499999999998 18.5360000000001,2.00299999999993 19.1959999999999,2.00299999999993 C19.1959999999999,2.00299999999993 22.3,2.00299999999993 22.3,2.00299999999993 C22.3,2.00299999999993 17.0619999999999,20.5730000000001 17.0619999999999,20.5730000000001 C17.0219999999999,20.713 17.0060000000001,20.998 16.982,20.998 C16.982,20.998 3.35300000000007,20.998 3.35300000000007,20.998 C3.2650000000001,20.998 3.1869999999999,20.8710000000001 3.10599999999999,20.894 C3.1869999999999,20.6579999999999 3.30400000000009,20.433 3.4670000000001,20.2280000000001 C3.4670000000001,20.2280000000001 17.5039999999999,2.66499999999996 17.5039999999999,2.66499999999996 ZM3.61899999999991,23.1759999999999 C3.51600000000008,23.0719999999999 3.42699999999991,22.998 3.34899999999993,22.998 C3.34899999999993,22.998 3.35300000000007,22.998 3.35300000000007,22.998 C3.35300000000007,22.998 17.1110000000001,22.998 17.1110000000001,22.998 C17.165,22.998 17.2159999999999,23.1859999999999 17.2919999999999,23.3510000000001 C17.2919999999999,23.3510000000001 29.105,48.992 29.105,48.992 C29.105,48.992 3.61899999999991,23.1759999999999 3.61899999999991,23.1759999999999 ZM33.9059999999999,48.836 C33.9059999999999,48.836 45.7190000000001,23.3510000000001 45.7190000000001,23.3510000000001 C45.7950000000001,23.1859999999999 45.847,22.998 45.9010000000001,22.998 C45.9010000000001,22.998 59.662,22.998 59.662,22.998 C59.5840000000001,22.998 59.4949999999999,23.0719999999999 59.3920000000001,23.175 C59.3920000000001,23.175 33.9059999999999,48.836 33.9059999999999,48.836 Z "/>
</svg>
