<?xml version="1.0" encoding="utf-8"?>
<!-- Generator: Adobe Illustrator 18.0.0, SVG Export Plug-In . SVG Version: 6.00 Build 0)  -->
<!DOCTYPE svg PUBLIC "-//W3C//DTD SVG 1.1//EN" "http://www.w3.org/Graphics/SVG/1.1/DTD/svg11.dtd">
<svg version="1.1" id="Layer_1" xmlns="http://www.w3.org/2000/svg" xmlns:xlink="http://www.w3.org/1999/xlink" x="0px" y="0px"
	 viewBox="0 0 200 50" enable-background="new 0 0 200 50" xml:space="preserve">
<g>
	<path fill="#6EBFDD" d="M54.7,22l1.3,0.4c2.9,0.9,5.7,1.8,8.6,2.7l3.5-1.7l-2.6-1.7L65,21.5l-2.6-1.6l0,0c-0.7-0.4-1.1-0.9-1.4-1.6
		c-0.3-0.6-0.4-1.2-0.4-1.8c0-0.6,0.2-1.2,0.6-1.7h0c0.4-0.6,0.9-1.1,1.6-1.4l3.8-1.8l0,0c0.6-0.3,1.3-0.4,1.9-0.4h0
		c0.7,0,1.3,0,1.9,0.2l11.5,4l1.7,0.6l10.6-5.1c1-0.5,2.2-0.8,3.4-0.9c0.3,0,0.6-0.1,0.9-0.1c-2-1.4-4.5-2.3-7.3-2.3
		c-1.4,0-2.7,0.2-4,0.6C85.3,3.4,80.5,0,74.9,0c-2.2,0-4.2,0.5-6.1,1.5c-1.1-0.6-2.4-1-3.9-1c-4.3,0-7.7,3.5-7.7,7.7
		c0,0.8,0.2,1.7,0.4,2.4c-3.2,0.9-5.6,3.9-5.6,7.4c0,1.7,0.6,3.3,1.5,4.5L54.7,22z"/>
	<path fill="#6EBFDD" d="M105.3,15.1c-1-2.1-6.8-2.5-9.6-1.2l-11.9,5.7l-4.1,2.2l3.1-2.6l-1.9-0.7l-11.5-4c-0.4-0.1-1-0.1-1.3,0.1
		l-3.8,1.8c-0.4,0.2-0.4,0.5-0.1,0.7l2.6,1.6l8,5.1l-10.1,4.8l-9.8-3.1c-1.4,0.7-2.2,1.1-2.2,1.1s1.2,1.4,2.9,3.2l-1.7,1.1
		c-0.1,0.1-0.1,0.1-0.1,0.2c0.1,0.1,0.1,0.1,0.2,0l1.9-0.9c0.3,0.3,0.6,0.6,0.9,0.9l-3.3,2.2c-0.1,0.1-0.1,0.1-0.1,0.2
		c0.1,0.1,0.2,0.1,0.2,0l3.8-1.8c0.3,0.3,0.7,0.7,1,1l-4.6,3c-0.1,0.1-0.1,0.1-0.1,0.2c0.1,0.1,0.1,0.1,0.2,0l5.3-2.5
		c0.6,0.5,1.1,1,1.7,1.5c1.8,1.5,12.2-1.2,16.7-3.4l2.6-1.2l-2,19c-0.1,0.4,0.2,0.6,0.6,0.4l3.8-1.8c0.3-0.2,0.7-0.6,0.9-1l7.7-21.8
		l10.2-4.9C104.4,19.2,106,16.5,105.3,15.1z"/>
</g>
<polygon fill="#FFFFFF" points="190.3,10.9 190.3,26.6 192.5,26.6 192.5,10.9 200,10.9 200,8.9 182.7,8.9 182.7,10.9 "/>
<path fill="#FFFFFF" d="M178.9,18.8c1.3-0.2,2.3-0.8,3.1-1.7c0.8-0.9,1.2-2,1.2-3.3c0-1.5-0.5-2.7-1.5-3.6c-1-0.9-2.4-1.3-4.1-1.3
	h-10.2v17.7h2.2v-7.7h6.9l4.5,7.7h2.4L178.9,18.8z M169.5,16.8v-5.8h8c1.1,0,1.9,0.3,2.4,0.8c0.6,0.5,0.9,1.2,0.9,2.2
	c0,1-0.3,1.7-0.9,2.2c-0.6,0.5-1.4,0.7-2.5,0.7H169.5z"/>
<path fill="#FFFFFF" d="M155.8,8.9H154l-8.8,17.7h2.4l2.4-4.8h9.9l2.4,4.8h2.4L155.8,8.9z M151,19.8l3.9-7.8l3.9,7.8H151z"/>
<polygon fill="#FFFFFF" points="129.8,8.9 129.8,26.6 144.6,26.6 144.6,24.5 132,24.5 132,18.1 139.2,18.1 139.2,16.1 132,16.1 
	132,10.9 143.9,10.9 143.9,8.9 "/>
<polygon fill="#FFFFFF" points="109.4,8.9 109.4,26.6 111.7,26.6 111.7,17.9 122.2,17.9 122.2,26.6 124.4,26.6 124.4,8.9 122.2,8.9 
	122.2,15.9 111.7,15.9 111.7,8.9 "/>
<polyline fill="#6EBFDD" points="36.8,8.9 35.4,8.9 36,9.6 "/>
<polyline fill="#6EBFDD" points="36.8,8.9 38.2,8.9 44.5,15.9 50.9,8.9 53.7,8.9 45.6,17.7 45.6,26.6 43.4,26.6 43.4,17.7 36,9.6 
	"/>
<line fill="#6EBFDD" x1="36.8" y1="8.9" x2="36" y2="9.6"/>
<polyline fill="#6EBFDD" points="36.8,8.9 36.9,8.9 33.9,8.9 23.7,17.7 23.7,8.9 21.5,8.9 21.5,26.6 23.7,26.6 23.7,20.3 28,16.7 
	35.3,26.6 37.9,26.6 29.6,15.2 36,9.6 "/>
<path fill="#6EBFDD" d="M0,23.9c1.4,1.1,2.8,1.8,4.4,2.4c1.5,0.5,3.2,0.8,5,0.8c2.3,0,4.3-0.5,5.7-1.6c1.5-1.1,2.2-2.4,2.2-4.1
	c0-1.4-0.5-2.6-1.6-3.5c-1.1-0.9-2.5-1.5-4.3-1.7C10.7,16,9.8,16,8.7,15.9c-2.4-0.1-4-0.5-4.7-1c-0.3-0.2-0.5-0.5-0.7-0.7
	c-0.1-0.2-0.2-0.5-0.2-0.8c0-0.8,0.5-1.4,1.3-1.9c0.9-0.5,2-0.8,3.3-0.8c1.3,0,2.5,0.2,3.8,0.7c1.2,0.4,2.4,1.1,3.5,2l1.3-1.8
	c-1.3-0.9-2.7-1.7-4.1-2.2c-1.4-0.5-2.9-0.7-4.4-0.7c-2,0-3.7,0.5-5,1.4c-1.3,0.9-1.9,2.1-1.9,3.5c0,0.8,0.2,1.5,0.7,2.1
	c0.4,0.6,1.1,1.1,1.9,1.5c1.1,0.5,3.1,0.8,6,1c0.6,0,1,0,1.4,0.1c1.3,0.1,2.3,0.4,3.1,1c0.7,0.5,1.1,1.3,1.1,2.1
	c0,1.1-0.5,2-1.5,2.7c-1,0.7-2.4,1-4,1c-1.3,0-2.7-0.3-4.1-0.8C3.9,23.7,2.6,23,1.3,22L0,23.9z"/>
</svg>
