<?xml version="1.0" encoding="utf-8"?>
<!-- Generator: Adobe Illustrator 18.0.0, SVG Export Plug-In . SVG Version: 6.00 Build 0)  -->
<!DOCTYPE svg PUBLIC "-//W3C//DTD SVG 1.1//EN" "http://www.w3.org/Graphics/SVG/1.1/DTD/svg11.dtd">
<svg version="1.1" id="Layer_3" xmlns="http://www.w3.org/2000/svg" xmlns:xlink="http://www.w3.org/1999/xlink" x="0px" y="0px"
	 viewBox="0 0 145.3 138" enable-background="new 0 0 145.3 138" xml:space="preserve">
<g>
	<path fill="#fff" d="M124.4,44.8L109.5,3.9c-1.1-3-4.3-4.6-7.2-3.6l-98.8,36c-2.9,1-4.3,4.3-3.2,7.4L16,86.9V63.8c0-10.4,8.3-18.9,18.6-18.9
		h26.1L91.9,23l18,21.8H124.4z M139.7,57.9H34.6c-3.1,0-5.5,2.6-5.5,5.8v68.4c0,3.2,2.5,5.8,5.5,5.8h105.1c3.1,0,5.5-2.6,5.5-5.8
		V63.8C145.3,60.5,142.8,57.9,139.7,57.9z M131.7,123.4H44.6V111L58,79.8l20.1,25L97,85.4l24.3-8.7l10.5,23.4V123.4z"/>
</g>
</svg>
