<?xml version="1.0" encoding="utf-8"?>
<!DOCTYPE svg PUBLIC "-//W3C//DTD SVG 1.1//EN" "http://www.w3.org/Graphics/SVG/1.1/DTD/svg11.dtd">
<svg version="1.1" baseProfile="full"
 xmlns="http://www.w3.org/2000/svg"
 xmlns:xlink="http://www.w3.org/1999/xlink"
 xmlns:ev="http://www.w3.org/2001/xml-events" 
  height="100%" 
  width="100%" 
>
<defs>
<filter id="Filter_0">
  <feFlood flood-color="rgb( 70, 70, 70 )" flood-opacity="1" result="floodOut" />
  <feComposite operator="atop" in="floodOut" in2="SourceGraphic" result="compOut" />
  <feBlend mode="normal" in="compOut" in2="SourceGraphic" />
</filter>

</defs><g filter="url(#Filter_0)">
<path opacity="0.478" fill="rgb( 255, 255, 255 )"
 d="M13.946,18.9880000000001 C5.36099999999999,18.9880000000001 0.07799999999997,9.49900000000002 0.07799999999997,9.49900000000002 C0.07799999999997,9.49900000000002 5.41099999999994,0.00900000000001 13.946,0.00900000000001 C22.026,0.00900000000001 28.0700000000001,9.49900000000002 28.0700000000001,9.49900000000002 C28.0700000000001,9.49900000000002 21.975,18.9880000000001 13.946,18.9880000000001 ZM14.021,5.24499999999989 C11.683,5.24499999999989 9.78800000000001,7.154 9.78800000000001,9.50900000000001 C9.78800000000001,11.864 11.683,13.7729999999999 14.021,13.7729999999999 C16.359,13.7729999999999 18.254,11.864 18.254,9.50900000000001 C18.254,7.154 16.359,5.24499999999989 14.021,5.24499999999989 ZM14.047,11.6220000000001 C12.883,11.6220000000001 11.9400000000001,10.672 11.9400000000001,9.5 C11.9400000000001,8.32799999999997 12.883,7.37799999999993 14.047,7.37799999999993 C15.211,7.37799999999993 16.154,8.32799999999997 16.154,9.5 C16.154,10.672 15.211,11.6220000000001 14.047,11.6220000000001 Z "/>
</g>
</svg>
