<?xml version="1.0" encoding="utf-8"?>
<!DOCTYPE svg PUBLIC "-//W3C//DTD SVG 1.1//EN" "http://www.w3.org/Graphics/SVG/1.1/DTD/svg11.dtd">
<svg version="1.1" baseProfile="full"
 xmlns="http://www.w3.org/2000/svg"
 xmlns:xlink="http://www.w3.org/1999/xlink"
 xmlns:ev="http://www.w3.org/2001/xml-events" 
  height="51px" 
  width="50px" 
>
<path fill-opacity="0.851" opacity="0.769" fill="rgb( 0, 0, 0 )"
 d="M49.927,4.44099999999997 C49.927,2.54000000000002 48.388,0.99900000000002 46.49,0.99900000000002 C46.49,0.99900000000002 3.437,0.99900000000002 3.437,0.99900000000002 C1.539,0.99900000000002 0,2.54000000000002 0,4.44099999999997 C0,4.44099999999997 0,47.558 0,47.558 C0,49.458 1.539,50.999 3.437,50.999 C3.437,50.999 46.49,50.999 46.49,50.999 C48.388,50.999 49.927,49.458 49.927,47.558 C49.927,47.558 49.927,4.44099999999997 49.927,4.44099999999997 ZM48.367,47.558 C48.367,48.595 47.526,49.437 46.49,49.437 C46.49,49.437 3.437,49.437 3.437,49.437 C2.40000000000001,49.437 1.56,48.595 1.56,47.558 C1.56,47.558 1.56,4.44099999999997 1.56,4.44099999999997 C1.56,3.40300000000002 2.40000000000001,2.56099999999998 3.437,2.56099999999998 C3.437,2.56099999999998 46.49,2.56099999999998 46.49,2.56099999999998 C47.526,2.56099999999998 48.367,3.40300000000002 48.367,4.44099999999997 C48.367,4.44099999999997 48.367,47.558 48.367,47.558 ZM28.186,22.212 C28.186,22.212 23.443,26.961 23.443,26.961 C23.443,26.961 28.186,31.712 28.186,31.712 C28.491,32.017 28.491,32.511 28.186,32.816 C28.033,32.968 27.834,33.045 27.634,33.045 C27.435,33.045 27.235,32.968 27.083,32.816 C27.083,32.816 21.789,27.513 21.789,27.513 C21.484,27.209 21.484,26.714 21.789,26.409 C21.789,26.409 27.083,21.107 27.083,21.107 C27.387,20.802 27.881,20.802 28.186,21.107 C28.491,21.412 28.491,21.907 28.186,22.212 Z "/>
</svg>
