<?xml version="1.0" encoding="utf-8"?>
<!DOCTYPE svg PUBLIC "-//W3C//DTD SVG 1.1//EN" "http://www.w3.org/Graphics/SVG/1.1/DTD/svg11.dtd">
<svg version="1.1" baseProfile="full"
 xmlns="http://www.w3.org/2000/svg"
 xmlns:xlink="http://www.w3.org/1999/xlink"
 xmlns:ev="http://www.w3.org/2001/xml-events" 
  height="51px" 
  width="50px" 
>
<path fill-opacity="0.851" opacity="0.769" fill="rgb( 0, 0, 0 )"
 d="M0.07300000000009,4.44099999999997 C0.07300000000009,2.54000000000002 1.61200000000008,0.99900000000002 3.50999999999999,0.99900000000002 C3.50999999999999,0.99900000000002 46.5630000000001,0.99900000000002 46.5630000000001,0.99900000000002 C48.461,0.99900000000002 50,2.54000000000002 50,4.44099999999997 C50,4.44099999999997 50,47.558 50,47.558 C50,49.458 48.461,50.999 46.5630000000001,50.999 C46.5630000000001,50.999 3.50999999999999,50.999 3.50999999999999,50.999 C1.61200000000008,50.999 0.07300000000009,49.458 0.07300000000009,47.558 C0.07300000000009,47.558 0.07300000000009,4.44099999999997 0.07300000000009,4.44099999999997 ZM1.63300000000004,47.558 C1.63300000000004,48.595 2.47399999999993,49.437 3.50999999999999,49.437 C3.50999999999999,49.437 46.5630000000001,49.437 46.5630000000001,49.437 C47.5999999999999,49.437 48.4400000000001,48.595 48.4400000000001,47.558 C48.4400000000001,47.558 48.4400000000001,4.44099999999997 48.4400000000001,4.44099999999997 C48.4400000000001,3.40300000000002 47.5999999999999,2.56099999999998 46.5630000000001,2.56099999999998 C46.5630000000001,2.56099999999998 3.50999999999999,2.56099999999998 3.50999999999999,2.56099999999998 C2.47399999999993,2.56099999999998 1.63300000000004,3.40300000000002 1.63300000000004,4.44099999999997 C1.63300000000004,4.44099999999997 1.63300000000004,47.558 1.63300000000004,47.558 ZM21.8140000000001,22.212 C21.8140000000001,22.212 26.556,26.961 26.556,26.961 C26.556,26.961 21.8140000000001,31.712 21.8140000000001,31.712 C21.509,32.017 21.509,32.511 21.8140000000001,32.816 C21.9670000000001,32.968 22.1659999999999,33.045 22.366,33.045 C22.5650000000001,33.045 22.7650000000001,32.968 22.9169999999999,32.816 C22.9169999999999,32.816 28.211,27.513 28.211,27.513 C28.5160000000001,27.209 28.5160000000001,26.714 28.211,26.409 C28.211,26.409 22.9169999999999,21.107 22.9169999999999,21.107 C22.6130000000001,20.802 22.1189999999999,20.802 21.8140000000001,21.107 C21.509,21.412 21.509,21.907 21.8140000000001,22.212 Z "/>
</svg>
